<svg viewBox="0 0 3014 2512" xmlns="http://www.w3.org/2000/svg"><path d="M0 1856V656q0-149 105.5-254.5T360 296h1200q149 0 254.5 105.5T1920 656v1200q0 149-105.5 254.5T1560 2216H360q-149 0-254.5-105.5T0 1856zm320 0q0 16 12 28t28 12h240q16 0 28-11.5t12-28.5v-800q0-16-12-28t-28-12H360q-16 0-28 12t-12 28v800zm45-1194.5Q320 707 320 771t45 109.5Q410 926 474 926q67 0 110-46 45-45 45-109t-45.5-109.5Q538 616 474 616t-109 45.5zM720 1856q0 16 19 28t38 12h228q14 0 24.5-12t10.5-28v-436q0-175 143-175 59 0 78 26t19 94v491q0 16 15 28t33 12h232q16 0 28-11.5t12-28.5v-543q0-157-90.5-240.5T1255 989q-113 0-197 57-17 10-18 15 0-45-43-45H777q-20 0-38.5 10t-18.5 25v805z"/></svg>